<?xml version="1.0" encoding="UTF-8"?>
<svg width="1200px" height="1200px" viewBox="0 0 1200 1200" version="1.1" xmlns="http://www.w3.org/2000/svg" xmlns:xlink="http://www.w3.org/1999/xlink">
    <title>Frame 2</title>
    <g id="Frame-2" stroke="none" fill="none" fill-rule="nonzero" stroke-linejoin="round" stroke-width="50.0458984">
        <path d="M1146.20236,216.449093 C1163.94688,219.800815 1169.05775,255.011302 1161.53498,322.080554 C1162.95425,325.028068 1164.26839,328.053251 1165.47264,331.153792 C1186.91274,386.354803 1166.55929,447.518519 1119.71094,479.530602 C1118.32218,483.515472 1116.89694,488.339155 1115.4848,493.936682 C1108.21503,522.752982 1103.32978,561.449652 1098.02017,626.566335 C1097.63318,631.312365 1097.23412,636.291129 1096.76431,642.219396 C1096.57905,644.557168 1096.38948,646.957518 1096.14048,650.116512 C1096.13874,650.138521 1095.99301,651.988027 1095.83872,653.945918 L1095.77821,654.713766 C1095.67092,656.075099 1095.56803,657.38037 1095.51515,658.050841 C1091.93666,703.414769 1089.69712,728.481294 1086.62654,753.4162 L1086.42058,755.078554 C1086.3515,755.632754 1086.28199,756.18711 1086.21201,756.741845 L1086.0007,758.407401 C1085.85888,759.518823 1085.71513,760.63264 1085.56926,761.750623 C1080.19092,802.97189 1073.22406,836.042118 1062.22916,865.26866 C1054.14283,886.763654 1043.86325,906.152076 1029.93408,923.642656 C1010.10843,948.537338 984.134886,967.748995 952.299356,977.786152 C919.266089,988.200934 885.204575,986.980272 853.07669,976.433898 C829.244573,968.610712 807.395128,956.080856 786.185198,939.527455 C784.379672,938.118323 782.587352,936.703496 780.808145,935.282975 C732.132875,896.420568 694.787198,854.821835 664.345572,808.751785 C658.913904,818.964489 654.312039,827.011036 648.753647,835.92842 C635.859455,856.614702 621.781582,874.715406 604.724253,891.017937 C560.713229,933.081442 504.10271,955.271918 437.763189,955.271918 C386.707614,955.271918 341.532461,932.27267 310.795362,893.603534 C290.422791,867.973604 278.428176,839.065588 270.634907,805.766681 C265.474808,783.718722 262.279808,759.986496 260.093709,731.979119 C259.959371,730.258038 259.830935,728.564239 259.707457,726.881963 L259.625862,725.761979 C258.426137,709.169073 257.690859,693.360391 256.508774,663.0948 C256.283412,657.324749 256.176606,654.599803 256.073071,652.008061 L256.037529,651.120337 L256.019532,650.672239 C256.004418,650.29629 255.988967,649.912872 255.972843,649.513495 C255.647173,641.446738 255.318695,634.052605 254.977749,627.242736 C248.589645,632.658581 241.863503,638.582879 234.840338,644.966897 C183.764192,691.394825 104.776389,687.566251 58.4161427,636.415539 C12.0558962,585.264827 15.8788881,506.16171 66.9550341,459.733782 C128.942856,403.387203 181.9737,366.698258 232.056625,348.091946 C264.987881,335.857652 298.055272,330.862239 331.255938,335.136052 C369.161406,340.015499 403.2002,356.721766 430.112158,382.822957 C451.407582,403.476821 466.590847,428.074913 477.559193,455.80709 C485.566765,476.0533 491.207017,497.70178 495.322966,521.528472 C499.091248,543.342565 501.413277,564.589422 503.170238,591.86117 C527.020229,562.153944 555.734602,538.31954 590.93464,521.382784 C610.2058,512.110324 628.977101,505.500057 648.560052,501.915096 C674.56693,497.154136 700.89441,498.044117 726.633966,505.840742 C752.179335,513.578546 774.081075,527.169095 792.418177,544.936851 C805.067122,557.19306 815.093484,570.363603 824.52059,585.530126 C828.931298,592.626164 833.027487,599.861779 837.695179,608.584445 C839.325486,611.631051 840.953728,614.72227 843.09147,618.815113 C843.160507,618.947287 844.343129,621.215212 845.577717,623.581302 L845.961359,624.316502 C846.471971,625.294955 846.972676,626.254125 847.388258,627.049645 C847.520212,625.378129 847.637651,623.893033 847.753737,622.428189 C848.237405,616.324957 848.65096,611.165379 849.055313,606.206425 C855.456373,527.704343 861.599564,479.043329 873.301106,432.660123 C881.830265,398.851784 892.951843,369.373647 908.550739,343.258827 C910.315416,340.304502 912.133974,337.400425 914.007109,334.549094 C895.858222,263.334365 896.730572,224.774672 916.623145,218.8675 C935.064737,213.391201 963.862639,227.178428 1003.01685,260.229179 L1003.79504,259.924982 C1026.21882,251.190127 1049.62798,249.382087 1071.66804,253.463577 C1105.29559,225.753359 1130.14033,213.415171 1146.20236,216.449093 Z" id="body" stroke="#000000" fill="#FFC72C"></path>
    </g>
</svg>