<?xml version="1.0" encoding="UTF-8"?>
<svg width="940px" height="642px" viewBox="0 0 940 642" version="1.1" xmlns="http://www.w3.org/2000/svg" xmlns:xlink="http://www.w3.org/1999/xlink">
    <title>body</title>
    <g id="wazup" stroke="none" stroke-width="1" fill="none" fill-rule="evenodd" stroke-linejoin="round">
        <g id="Frame-2" transform="translate(-103, -279)" fill="#FFC72C" fill-rule="nonzero" stroke="#000000" stroke-width="39.1662364">
            <path d="M1001.20743,299.351566 C1015.11854,301.975394 1019.12536,329.539065 1013.22788,382.042578 C1014.34033,384.350709 1015.37064,386.719056 1016.31479,389.146401 C1033.12323,432.359676 1017.16669,480.240765 980.43889,505.300939 C979.350143,508.420435 978.232794,512.196582 977.125714,516.578521 C971.426419,539.136924 967.596521,569.430027 963.433932,620.405635 C963.130542,624.120993 962.817688,628.018543 962.449376,632.659397 C962.304134,634.489487 962.155517,636.368564 961.960305,638.841535 C961.957821,638.872996 961.578904,643.675025 961.470062,645.052804 C958.726976,679.776102 956.987443,699.30824 954.66118,718.406477 L954.501643,719.708131 C954.448149,720.141907 954.394332,720.575632 954.340176,721.009479 L954.176666,722.311561 C954.012098,723.614357 953.844299,724.919813 953.672763,726.232607 C949.456298,758.502052 943.994473,784.390578 935.374776,807.270134 C929.035322,824.097165 920.976413,839.275098 910.056334,852.967333 C894.513574,872.455758 874.151043,887.495312 849.192875,895.352749 C823.295714,903.505802 796.592437,902.550226 771.405071,894.294157 C752.721355,888.169894 735.592,878.361087 718.964005,865.402507 C717.548524,864.299389 716.143394,863.191813 714.748546,862.07978 C676.588491,831.656934 647.310521,799.091996 623.445135,763.026755 C619.186859,771.021616 615.579125,777.320733 611.2215,784.301572 C601.112813,800.495514 590.076153,814.665376 576.703683,827.427565 C542.200267,860.356343 497.819197,877.727822 445.810863,877.727822 C405.784715,877.727822 370.368654,859.723209 346.271625,829.451661 C330.300098,809.387659 320.896653,786.757456 314.786948,760.689912 C310.741574,743.430001 308.236783,724.851587 306.522943,702.926437 C306.40721,701.445863 306.297063,699.99108 306.191523,698.545716 L306.121835,697.583355 C306.11033,697.423134 306.09888,697.262985 306.087482,697.102884 L306.01972,696.142689 L305.920313,694.702237 C305.113502,682.849437 304.559193,670.649483 303.712453,649.001391 C303.551697,644.89142 303.467888,642.755009 303.392945,640.874987 L303.37641,640.460727 C303.368187,640.255009 303.360012,640.050886 303.35179,639.846002 L303.335258,639.434524 C303.321384,639.089616 303.307208,638.738234 303.292299,638.369472 C303.036983,632.054533 302.779465,626.266148 302.512172,620.935146 C297.504077,625.174858 292.230969,629.812605 286.725004,634.810236 C246.682729,671.155636 184.758493,668.158496 148.413352,628.115936 C112.068211,588.073376 115.06533,526.148699 155.107605,489.803299 C203.704329,445.693233 245.279033,416.971848 284.54265,402.406179 C310.359837,392.828747 336.28375,388.918164 362.312146,392.263854 C392.028977,396.083655 418.714443,409.161903 439.812668,429.594824 C456.507686,445.763389 468.410943,465.019633 477.00982,486.729348 C483.287534,502.578786 487.709334,519.52597 490.936123,538.178335 C493.890351,555.255168 495.710757,571.887948 497.088165,593.237223 C515.785894,569.981371 538.297162,551.322969 565.893011,538.064286 C581.001063,530.805481 595.71724,525.630734 611.069727,522.824301 C631.458395,519.097256 652.098405,519.793964 672.277499,525.897434 C692.304357,531.954856 709.474711,542.594012 723.850487,556.50323 C733.766907,566.097818 741.627296,576.408178 749.017884,588.281061 C752.475756,593.836086 755.687054,599.500378 759.346395,606.328785 C760.62451,608.713774 761.901007,611.133688 763.576936,614.337708 C763.659054,614.494699 765.750882,618.50053 766.945499,620.783988 C767.048946,619.475466 767.141016,618.312882 767.232024,617.16615 C767.611206,612.388328 767.935422,608.349231 768.252423,604.467189 C773.270675,543.013023 778.086766,504.919485 787.260449,468.609095 C793.947071,442.142749 802.666079,419.066236 814.895179,398.622644 C816.27873,396.30974 817.704528,394.036177 819.173119,391.80391 C804.944598,336.055036 805.628485,305.869123 821.22372,301.244779 C835.681442,296.957733 858.258254,307.750904 888.954155,333.624293 L889.564056,333.386007 C907.143399,326.548166 925.495221,325.132706 942.773776,328.327642 C969.13722,306.635488 988.615095,296.976479 1001.20743,299.351566 Z" id="body"></path>
        </g>
    </g>
</svg>